<!-- Generator: Adobe Illustrator 24.1.3, SVG Export Plug-In  -->
<svg version="1.1" xmlns="http://www.w3.org/2000/svg" xmlns:xlink="http://www.w3.org/1999/xlink" x="0px" y="0px"
	 width="206.67px" height="125.79px" viewBox="0 0 206.67 125.79"
	 style="overflow:visible;enable-background:new 0 0 206.67 125.79;" xml:space="preserve">
<style type="text/css">
	.st0{fill:none;}
	.st1{clip-path:url(#SVGID_2_);}
	.st2{enable-background:new    ;}
	.st3{fill:#445366;}
	.st4{clip-path:url(#SVGID_4_);}
	.st5{clip-path:url(#SVGID_6_);fill:#4FB989;}
	.st6{clip-path:url(#SVGID_8_);fill:#445366;}
	.st7{clip-path:url(#SVGID_10_);}
	.st8{clip-path:url(#SVGID_12_);}
	.st9{clip-path:url(#SVGID_14_);fill:#4FB989;}
	.st10{clip-path:url(#SVGID_16_);fill:#445366;}
</style>
<defs>
</defs>
<rect class="st0" width="206.67" height="125.79"/>
<g>
	<g>
		<defs>
			<rect id="SVGID_1_" width="206.67" height="125.79"/>
		</defs>
		<clipPath id="SVGID_2_">
			<use xlink:href="#SVGID_1_"  style="overflow:visible;"/>
		</clipPath>
		<g class="st1">
			<g class="st2">
				<path class="st3" d="M3.46,55.5c0-0.67,0.23-1.24,0.69-1.73c0.46-0.49,1.03-0.73,1.69-0.73h12.63c1.85,0,3.57,0.35,5.16,1.04
					c1.59,0.69,2.99,1.64,4.2,2.85c1.21,1.21,2.16,2.61,2.85,4.2s1.04,3.28,1.04,5.08c0,1.64-0.28,3.18-0.85,4.62
					c-0.57,1.44-1.33,2.73-2.31,3.89c-0.98,1.15-2.14,2.13-3.5,2.92c-1.36,0.8-2.81,1.32-4.35,1.58l11.7,19.02
					c0.15,0.26,0.29,0.54,0.42,0.85c0.13,0.31,0.19,0.64,0.19,1c0,0.41-0.19,0.87-0.58,1.39c-0.38,0.51-0.94,0.77-1.66,0.77
					c-0.46,0-0.89-0.13-1.27-0.38s-0.71-0.59-0.96-1L15.4,79.37H8.24v20.48c0,0.67-0.23,1.23-0.69,1.69s-1.03,0.69-1.69,0.69
					c-0.67,0-1.23-0.23-1.69-0.69s-0.69-1.03-0.69-1.69V55.5z M8.24,57.81v16.78h10.24c1.13,0,2.21-0.22,3.23-0.65
					c1.03-0.44,1.92-1.04,2.69-1.81c0.77-0.77,1.37-1.66,1.81-2.66c0.44-1,0.65-2.09,0.65-3.27c0-1.13-0.22-2.21-0.65-3.23
					c-0.44-1.03-1.04-1.92-1.81-2.69c-0.77-0.77-1.67-1.37-2.69-1.81c-1.03-0.44-2.1-0.65-3.23-0.65H8.24z"/>
				<path class="st3" d="M38.41,55.42c0-0.67,0.23-1.23,0.69-1.69s1.03-0.69,1.69-0.69h23.4c0.67,0,1.23,0.23,1.69,0.69
					s0.69,1.03,0.69,1.69c0,0.67-0.23,1.23-0.69,1.69s-1.03,0.69-1.69,0.69H43.19v17.17H57.2c0.67,0,1.23,0.23,1.69,0.69
					s0.69,1.03,0.69,1.69c0,0.67-0.23,1.23-0.69,1.69s-1.03,0.69-1.69,0.69H43.19v17.71H64.2c0.67,0,1.23,0.23,1.69,0.69
					s0.69,1.03,0.69,1.69c0,0.67-0.23,1.23-0.69,1.69s-1.03,0.69-1.69,0.69H40.8c-0.67,0-1.23-0.23-1.69-0.69s-0.69-1.03-0.69-1.69
					V55.42z"/>
			</g>
		</g>
	</g>
	<g>
		<defs>
			<rect id="SVGID_3_" width="206.67" height="125.79"/>
		</defs>
		<clipPath id="SVGID_4_">
			<use xlink:href="#SVGID_3_"  style="overflow:visible;"/>
		</clipPath>
		<g class="st4">
			<g class="st2">
				<path class="st3" d="M135.03,55.5c0-0.56,0.23-1.12,0.69-1.66c0.46-0.54,1.05-0.81,1.77-0.81c0.72,0,1.28,0.26,1.69,0.77
					c0.41,0.51,0.62,1.1,0.62,1.77v29.56c0,1.69,0.32,3.29,0.96,4.77c0.64,1.49,1.51,2.78,2.62,3.89c1.1,1.1,2.41,1.99,3.93,2.66
					s3.12,1,4.81,1s3.28-0.33,4.77-1c1.49-0.67,2.8-1.55,3.93-2.66c1.13-1.1,2.03-2.4,2.69-3.89c0.67-1.49,1-3.08,1-4.77V55.5
					c0-0.56,0.23-1.12,0.69-1.66s1.05-0.81,1.77-0.81s1.28,0.28,1.69,0.85c0.41,0.57,0.62,1.13,0.62,1.69v29.56
					c0,2.36-0.46,4.58-1.39,6.66c-0.92,2.08-2.16,3.89-3.7,5.43c-1.54,1.54-3.35,2.76-5.43,3.66c-2.08,0.9-4.3,1.35-6.66,1.35
					c-2.36,0-4.58-0.45-6.66-1.35c-2.08-0.9-3.89-2.12-5.43-3.66s-2.76-3.35-3.66-5.43c-0.9-2.08-1.35-4.3-1.35-6.66V55.5z"/>
				<path class="st3" d="M175.6,55.42c0-0.67,0.23-1.23,0.69-1.69s1.03-0.69,1.69-0.69h23.4c0.67,0,1.23,0.23,1.69,0.69
					s0.69,1.03,0.69,1.69c0,0.67-0.23,1.23-0.69,1.69s-1.03,0.69-1.69,0.69h-21.02v17.17h14.01c0.67,0,1.23,0.23,1.69,0.69
					c0.46,0.46,0.69,1.03,0.69,1.69c0,0.67-0.23,1.23-0.69,1.69c-0.46,0.46-1.03,0.69-1.69,0.69h-14.01v17.71h21.02
					c0.67,0,1.23,0.23,1.69,0.69s0.69,1.03,0.69,1.69c0,0.67-0.23,1.23-0.69,1.69s-1.03,0.69-1.69,0.69h-23.4
					c-0.67,0-1.23-0.23-1.69-0.69s-0.69-1.03-0.69-1.69V55.42z"/>
			</g>
		</g>
	</g>
</g>
<g>
	<defs>
		<rect id="SVGID_5_" width="206.67" height="125.79"/>
	</defs>
	<clipPath id="SVGID_6_">
		<use xlink:href="#SVGID_5_"  style="overflow:visible;"/>
	</clipPath>
	<polygon class="st5" points="137.32,0 101.53,62.64 65.05,0 38.89,0 101.53,106 163.48,0 	"/>
</g>
<g>
	<defs>
		<rect id="SVGID_7_" width="206.67" height="125.79"/>
	</defs>
	<clipPath id="SVGID_8_">
		<use xlink:href="#SVGID_7_"  style="overflow:visible;"/>
	</clipPath>
	<polygon class="st6" points="114.61,0 102.91,26.16 87.76,0 65.05,0 101.53,62.64 137.32,0 	"/>
</g>
</svg>
