<svg
              xmlns="http://www.w3.org/2000/svg"
              width="24"
              height="24"
              viewBox="0 0 24 24"
            >
              <path
                fill="#A2B1B3"
                d="M11.762 16.74a.5.5 0 0 1 .476 0l4.205 2.274-.78-4.907a.5.5 0 0 1 .135-.427l3.415-3.511-4.722-.744a.5.5 0 0 1-.373-.278L12 4.732 9.882 9.147a.5.5 0 0 1-.373.278l-4.722.744 3.415 3.51a.5.5 0 0 1 .135.428l-.78 4.907 4.205-2.275zM12 17.746l-4.858 2.629a.5.5 0 0 1-.732-.519l.9-5.66-3.914-4.023a.5.5 0 0 1 .281-.843l5.417-.853 2.455-5.118a.5.5 0 0 1 .902 0l2.455 5.118 5.417.853a.5.5 0 0 1 .28.843l-3.913 4.024.9 5.66a.5.5 0 0 1-.732.518L12 17.747z"
              ></path>
            </svg>